<svg xmlns="http://www.w3.org/2000/svg" width="320.024" height="48.215" viewBox="0 0 320.024 48.215">
  <g id="fslogo" transform="translate(-0.047 -0.977)">
    <path id="Path_7" data-name="Path 7" d="M9.337,3.477V48.565H.047V3.477ZM27.3,22.739v7.246H6.8V22.739ZM29.465,3.477v7.277H6.8V3.477Zm13.156,18.89v26.2H33.7V15.059h8.392Zm10.1-7.525-.155,8.268q-.65-.093-1.579-.155a16.047,16.047,0,0,0-1.641-.093,9.805,9.805,0,0,0-3.283.5,5.853,5.853,0,0,0-2.291,1.394A6.082,6.082,0,0,0,42.4,27.012a11.113,11.113,0,0,0-.5,3.035l-1.8-.557a25.743,25.743,0,0,1,.65-5.977,16.528,16.528,0,0,1,1.889-4.8,9.454,9.454,0,0,1,3.1-3.159,7.864,7.864,0,0,1,4.18-1.115,9.6,9.6,0,0,1,1.517.124A5.578,5.578,0,0,1,52.716,14.842ZM71.941,49.184a18.711,18.711,0,0,1-7-1.239,15.365,15.365,0,0,1-5.264-3.5A15.548,15.548,0,0,1,56.4,39.275a17.413,17.413,0,0,1-1.146-6.317V31.719a21.353,21.353,0,0,1,1.084-6.967,16.385,16.385,0,0,1,3.1-5.481,13.6,13.6,0,0,1,4.955-3.561,16.263,16.263,0,0,1,6.565-1.27,15.963,15.963,0,0,1,6.317,1.177,12.377,12.377,0,0,1,4.614,3.344,14.431,14.431,0,0,1,2.849,5.2,21.9,21.9,0,0,1,.96,6.689v3.716H59.059V28.622H76.927v-.681a7.727,7.727,0,0,0-.681-3.313,5.259,5.259,0,0,0-1.982-2.353,6.133,6.133,0,0,0-3.406-.867,5.719,5.719,0,0,0-3.035.774,5.989,5.989,0,0,0-2.075,2.168,11.8,11.8,0,0,0-1.177,3.282,20.881,20.881,0,0,0-.372,4.088v1.239a11.888,11.888,0,0,0,.557,3.716A9.053,9.053,0,0,0,66.4,39.616a7.492,7.492,0,0,0,2.6,1.92,8.6,8.6,0,0,0,3.5.681,10.861,10.861,0,0,0,4.49-.929,9.722,9.722,0,0,0,3.623-2.88l4.335,4.707a13.191,13.191,0,0,1-2.88,2.911,15.379,15.379,0,0,1-4.335,2.292A17.879,17.879,0,0,1,71.941,49.184ZM109.1,39.306a2.9,2.9,0,0,0-.557-1.734,4.89,4.89,0,0,0-2.075-1.424,20.245,20.245,0,0,0-4.3-1.239,33.6,33.6,0,0,1-4.738-1.394,16.438,16.438,0,0,1-3.778-2.075,9.022,9.022,0,0,1-2.477-2.849,7.922,7.922,0,0,1-.9-3.809,8.99,8.99,0,0,1,.9-3.964A10.221,10.221,0,0,1,93.8,17.536a12.457,12.457,0,0,1,4.211-2.261,17.765,17.765,0,0,1,5.636-.836,18.323,18.323,0,0,1,7.494,1.394,11.086,11.086,0,0,1,4.831,3.84,9.329,9.329,0,0,1,1.7,5.512h-8.918a4.771,4.771,0,0,0-.557-2.322,3.68,3.68,0,0,0-1.672-1.641,5.971,5.971,0,0,0-2.911-.619,5.828,5.828,0,0,0-2.57.527,3.941,3.941,0,0,0-1.672,1.362,3.277,3.277,0,0,0-.557,1.858,3.072,3.072,0,0,0,.31,1.394,3.381,3.381,0,0,0,1.084,1.084,9.268,9.268,0,0,0,1.92.929,23.906,23.906,0,0,0,2.973.743,34.2,34.2,0,0,1,6.472,1.951,11.246,11.246,0,0,1,4.521,3.221,8.016,8.016,0,0,1,1.672,5.3,8.548,8.548,0,0,1-.991,4.088,9.866,9.866,0,0,1-2.849,3.252,14.433,14.433,0,0,1-4.459,2.137,20.842,20.842,0,0,1-5.791.743,17.175,17.175,0,0,1-7.927-1.672,12.573,12.573,0,0,1-4.893-4.242,9.868,9.868,0,0,1-1.641-5.326h8.454a4.945,4.945,0,0,0,.929,2.942,5.073,5.073,0,0,0,2.261,1.61,8.9,8.9,0,0,0,3,.5,7.716,7.716,0,0,0,2.88-.464,4.094,4.094,0,0,0,1.734-1.3A3.14,3.14,0,0,0,109.1,39.306ZM132.47,1V48.565h-8.919V1ZM131.2,30.635h-2.446a22.674,22.674,0,0,1,.929-6.441,15.8,15.8,0,0,1,2.571-5.14,11.851,11.851,0,0,1,3.994-3.406,11.23,11.23,0,0,1,5.2-1.208,13.393,13.393,0,0,1,4.49.712,8.36,8.36,0,0,1,3.5,2.23,10.026,10.026,0,0,1,2.291,3.995,19.6,19.6,0,0,1,.8,6.008V48.565h-8.981V27.322a7.777,7.777,0,0,0-.65-3.5A3.578,3.578,0,0,0,141.078,22a6.775,6.775,0,0,0-2.911-.557,7.005,7.005,0,0,0-3.282.712,5.631,5.631,0,0,0-2.136,1.982,8.77,8.77,0,0,0-1.177,2.911A16.539,16.539,0,0,0,131.2,30.635Z" transform="translate(0 0.008)" fill="#14b8a6"/>
    <path id="Path_8" data-name="Path 8" d="M145.108,36.774a5.953,5.953,0,0,0-.373-2.168,4.088,4.088,0,0,0-1.3-1.8,11.517,11.517,0,0,0-2.694-1.641,38.134,38.134,0,0,0-4.49-1.672,56.876,56.876,0,0,1-5.823-2.23,23.937,23.937,0,0,1-4.83-2.88,12.966,12.966,0,0,1-3.282-3.871,10.663,10.663,0,0,1-1.177-5.11,10.57,10.57,0,0,1,1.239-5.109,11.76,11.76,0,0,1,3.468-3.964,16.474,16.474,0,0,1,5.264-2.57,23.832,23.832,0,0,1,6.72-.9,19.791,19.791,0,0,1,8.7,1.8,13.929,13.929,0,0,1,5.759,4.924,12.642,12.642,0,0,1,2.074,7.153h-9.228a6.955,6.955,0,0,0-.836-3.468,5.652,5.652,0,0,0-2.477-2.384,8.83,8.83,0,0,0-4.149-.867,9.6,9.6,0,0,0-4.026.743,5.363,5.363,0,0,0-2.415,1.951,4.8,4.8,0,0,0-.806,2.725,3.958,3.958,0,0,0,.558,2.075,6.288,6.288,0,0,0,1.735,1.734,15.445,15.445,0,0,0,2.817,1.517,40.745,40.745,0,0,0,3.871,1.394,41.2,41.2,0,0,1,6.473,2.508,20.08,20.08,0,0,1,4.706,3.128,11.625,11.625,0,0,1,2.849,3.933,12.33,12.33,0,0,1,.961,4.986,11.745,11.745,0,0,1-1.146,5.264,10.81,10.81,0,0,1-3.314,3.933,15.6,15.6,0,0,1-5.171,2.446,25.052,25.052,0,0,1-6.72.836,25.482,25.482,0,0,1-6.6-.867,20.032,20.032,0,0,1-5.915-2.694,13.58,13.58,0,0,1-4.211-4.583,13.16,13.16,0,0,1-1.58-6.6h9.321a8.714,8.714,0,0,0,.65,3.561,5.947,5.947,0,0,0,1.827,2.354,7.842,7.842,0,0,0,2.849,1.3,15.6,15.6,0,0,0,3.655.4,9.9,9.9,0,0,0,3.964-.681,4.891,4.891,0,0,0,2.323-1.889A4.948,4.948,0,0,0,145.108,36.774Zm31.673-21.708v6.317H157.272V15.066ZM162.1,6.8h8.918V38.477a5.314,5.314,0,0,0,.371,2.23,2.229,2.229,0,0,0,1.177,1.084,5.82,5.82,0,0,0,1.95.279q.836,0,1.486-.062.682-.093,1.146-.186l.032,6.565a16.751,16.751,0,0,1-2.477.588,18.376,18.376,0,0,1-2.942.217,12.755,12.755,0,0,1-5.14-.96,7.083,7.083,0,0,1-3.345-3.159,11.941,11.941,0,0,1-1.176-5.7ZM179.841,32.16v-.65a20.959,20.959,0,0,1,1.053-6.782,15.678,15.678,0,0,1,3.067-5.419,13.724,13.724,0,0,1,4.955-3.561,16.544,16.544,0,0,1,6.75-1.3,16.769,16.769,0,0,1,6.782,1.3,13.67,13.67,0,0,1,4.985,3.561,15.429,15.429,0,0,1,3.1,5.419,20.96,20.96,0,0,1,1.053,6.782v.65a21.14,21.14,0,0,1-1.053,6.782,15.805,15.805,0,0,1-3.1,5.419,13.722,13.722,0,0,1-4.955,3.561,16.894,16.894,0,0,1-6.75,1.27,17.126,17.126,0,0,1-6.782-1.27,14.033,14.033,0,0,1-4.985-3.561,16.067,16.067,0,0,1-3.067-5.419A21.139,21.139,0,0,1,179.841,32.16Zm8.918-.65v.65a19.675,19.675,0,0,0,.373,3.933,10.617,10.617,0,0,0,1.176,3.221,6.137,6.137,0,0,0,2.168,2.137,6.371,6.371,0,0,0,3.252.774,6.242,6.242,0,0,0,3.189-.774,5.885,5.885,0,0,0,2.136-2.137,10.653,10.653,0,0,0,1.177-3.221,18.271,18.271,0,0,0,.4-3.933v-.65a17.539,17.539,0,0,0-.4-3.84,10.178,10.178,0,0,0-1.208-3.221,6.005,6.005,0,0,0-2.138-2.23,6.843,6.843,0,0,0-6.441,0,6.338,6.338,0,0,0-2.136,2.23,10.617,10.617,0,0,0-1.176,3.221A18.885,18.885,0,0,0,188.759,31.51Zm42.358,10.715a6.559,6.559,0,0,0,2.911-.619,4.91,4.91,0,0,0,1.982-1.8,5.255,5.255,0,0,0,.774-2.756h8.391a11.163,11.163,0,0,1-1.888,6.286,13,13,0,0,1-4.986,4.3,15.556,15.556,0,0,1-7,1.548,16.579,16.579,0,0,1-6.812-1.3,13.305,13.305,0,0,1-4.8-3.592,15.743,15.743,0,0,1-2.879-5.388,22.238,22.238,0,0,1-.961-6.627v-.9a22.041,22.041,0,0,1,.961-6.627,15.375,15.375,0,0,1,2.879-5.388,13.151,13.151,0,0,1,4.8-3.623,16.275,16.275,0,0,1,6.752-1.3,15.67,15.67,0,0,1,7.214,1.579,11.764,11.764,0,0,1,4.894,4.521,13.083,13.083,0,0,1,1.826,6.906h-8.391a6.988,6.988,0,0,0-.712-3.035,5.14,5.14,0,0,0-1.92-2.168,5.359,5.359,0,0,0-3.067-.836,5.591,5.591,0,0,0-3.19.836,5.342,5.342,0,0,0-1.92,2.23,11.071,11.071,0,0,0-.959,3.19,26.735,26.735,0,0,0-.248,3.716v.9a27.41,27.41,0,0,0,.248,3.747,10.475,10.475,0,0,0,.929,3.19,5.6,5.6,0,0,0,1.95,2.2A5.819,5.819,0,0,0,231.117,42.224ZM259.478.977v47.6h-8.918V.977ZM280.6,15.066l-14.555,16.6-7.8,7.9-3.252-6.441,6.194-7.866,8.7-10.188Zm-9.259,33.506-9.909-15.483L267.59,27.7l14.028,20.872Z" transform="translate(38.453)" fill="#115e59"/>
  </g>
</svg>
